<?xml version="1.0" encoding="utf-8"?>
<!-- Generator: Adobe Illustrator 26.5.3, SVG Export Plug-In . SVG Version: 6.00 Build 0)  -->
<svg version="1.1" id="Camada_1" xmlns="http://www.w3.org/2000/svg" xmlns:xlink="http://www.w3.org/1999/xlink" x="0px" y="0px"
	 viewBox="0 0 422.81 450.38" style="enable-background:new 0 0 422.81 450.38;" xml:space="preserve">
<style type="text/css">
	.st0{fill:#FFFFFF;}
</style>
<g>
	<path class="st0" d="M173.47,221.75c30.33,15.05,56.91,29.02,84.28,41.23c6.08,2.71,15.41,0.72,22.41-1.62
		c40.74-13.63,79.65,4.76,92.35,44.35c11.64,36.3-7.28,72.92-43.98,85.14c-37.74,12.57-74.48-8.05-88.78-47.44
		c-3.74-10.31-13.18-20.15-22.53-26.45c-14.27-9.62-30.94-15.59-46.2-23.82c-17.14-9.24-32.31-14.81-53.28-5.38
		c-25.11,11.3-59.13-3.62-74.77-26.47c-16.7-24.39-16.43-56.88,0.66-79.87c17.37-23.36,47.97-34.64,75.49-23.8
		c17.45,6.88,31.07,4.59,46.11-4.24c13.36-7.84,27.38-14.77,41.67-20.75c18.21-7.62,30.4-17.18,36.46-38.82
		c10.22-36.54,50.97-53.35,86.61-40.48c34.99,12.64,53.72,49.43,42.73,83.9c-11.23,35.18-51.21,60.05-84.28,47.03
		c-20.19-7.94-34.09-3.3-50.39,5.37C217.94,200.29,197.34,209.93,173.47,221.75z M361.59,324.86
		c-0.68-31.16-26.42-56.19-56.35-54.78c-30.87,1.45-54.98,27.56-53.54,57.97c1.45,30.63,24.68,52.65,55.38,52.52
		C339.23,380.42,362.29,356.86,361.59,324.86z M306.29,173.56c28.07,0.54,54.3-25.06,55.22-53.87c0.99-31.12-23.37-56.6-54.23-56.7
		c-30.34-0.1-55.1,23.5-55.38,52.8C251.61,146.52,276.53,172.99,306.29,173.56z M99.48,276.05c30.86-0.08,55.87-25.37,55.08-55.72
		c-0.75-29.27-25.38-52.78-55.31-52.8c-29.94-0.02-54.19,23.65-54.53,53.2C44.36,252.86,67.39,276.13,99.48,276.05z M169.06,208.48
		c29.44-15.07,56.68-29.02,85.4-43.72c-6.51-11.77-11.98-21.67-17.83-32.26c-28.64,14.76-55.89,28.8-83.51,43.04
		C158.64,186.93,163.25,196.47,169.06,208.48z M254.53,278.79c-29.65-15.12-56.86-28.99-85.19-43.43
		c-5.67,11.41-10.66,21.45-16.25,32.69c28.67,14.72,55.82,28.67,83.95,43.11C242.94,300.22,248.02,290.83,254.53,278.79z"/>
</g>
</svg>
