<?xml version="1.0" encoding="utf-8"?>
<!-- Generator: Adobe Illustrator 26.5.3, SVG Export Plug-In . SVG Version: 6.00 Build 0)  -->
<svg version="1.1" id="Camada_1" xmlns="http://www.w3.org/2000/svg" xmlns:xlink="http://www.w3.org/1999/xlink" x="0px" y="0px"
	 viewBox="0 0 422.81 450.38" style="enable-background:new 0 0 422.81 450.38;" xml:space="preserve">
<style type="text/css">
	.st0{fill:#FFFFFF;}
</style>
<g>
	<path class="st0" d="M280.33,277.38c-2.23,26.17-5.13,51.57-13.7,75.9c-1.79,5.09-6.73,9.08-10.22,13.57
		c-3.79-4.54-8.72-8.57-11.11-13.76c-3.31-7.2-4.72-15.28-6.13-20.16c-4.62,18.3-9.43,39.02-15.27,59.45
		c-1.73,6.07-5.71,11.84-9.81,16.8c-5.42,6.55-12.58,6.89-17.53,0.06c-5.57-7.68-10.72-16.36-13.27-25.39
		c-5.04-17.78-8.16-36.11-12.03-54c-0.29,0.96-0.82,2.75-1.37,4.54c-2.52,8.3-4.6,16.77-7.78,24.81c-1.2,3.04-5.25,7.34-7.44,7.04
		c-3.2-0.44-7.63-4.02-8.53-7.13c-4.56-15.82-8.57-31.83-11.94-47.95c-1.96-9.4-2.36-19.12-4.83-28.92
		c-2.11,6.76-4.1,13.56-6.39,20.25c-1.1,3.23-2.17,6.81-4.34,9.26c-3.11,3.5-7.27,8.52-10.88,8.44c-3.68-0.08-9.22-4.89-10.51-8.77
		c-5.31-15.89-9.37-32.2-13.74-48.39c-0.88-3.26-1.11-6.69-1.66-10.2c-1.02,0.36-1.67,0.38-1.93,0.71
		c-3.24,4.21-6.42,8.46-9.62,12.7c-3.14-4.68-7.7-8.95-9.17-14.11c-8.85-30.99-10.02-62.9-8.15-94.76
		c1.24-21.09,4.58-42.11,8.16-62.96c0.9-5.23,6.36-9.67,9.73-14.48c3.1,4.75,6.75,9.24,9.14,14.32c2.07,4.41,2.72,9.49,3.81,13.56
		c3.33-11.56,6.7-23.77,10.41-35.87c0.99-3.22,2.68-6.37,4.63-9.14c6.14-8.74,13.85-9.31,17.9,0.45
		c6.51,15.67,10.51,32.4,15.22,48.78c1.44,5.01,1.73,10.36,2.31,13.99c3.48-12.1,6.89-25.54,11.38-38.61
		c1.2-3.5,5.68-8.13,8.64-8.13c2.96,0.01,7.21,4.64,8.65,8.17c10.64,26.11,13.3,53.74,14.49,81.58c0.03,0.79,0.2,1.58,1.7,2.7
		c1.42-5.09,2.34-10.39,4.36-15.23c3.12-7.44,6.26-15.06,10.72-21.7c6.32-9.39,15.4-10.01,21.18-0.39
		c6.29,10.47,9.77,22.63,14.4,34.08c0.49,1.21,0.48,2.63,2.24,3.88c1.08-11.37,1.4-22.88,3.43-34.08c3-16.51,6.79-32.92,11.25-49.1
		c1.12-4.05,6.07-7.05,9.25-10.53c3.21,3.44,7.93,6.34,9.36,10.41c4.3,12.24,7.31,24.92,10.06,34.71
		c3.69-14.94,7.57-32.59,12.53-49.92c2.17-7.57,5.51-18.12,14.72-16.53c5.54,0.96,11.1,10.02,13.92,16.61
		c4.49,10.51,6.69,22,9.8,32.87c2.01-6.23,3.8-13.11,6.52-19.58c1.2-2.86,4.3-4.92,6.54-7.35c2.51,2.52,6.63,4.69,7.28,7.62
		c3.83,17.3,8.47,34.65,9.81,52.22c2.67,34.92,2.37,69.96-5.07,104.48c-1.24,5.75-3.01,11.55-5.62,16.79
		c-3.58,7.21-8.4,7.15-12.15,0.06c-2.09-3.96-3.09-8.49-4.32-12.01c-3.3,15.81-6.35,32.12-10.26,48.22
		c-1.44,5.95-4.33,11.77-7.61,16.99c-5.65,9-13.04,9.37-17.97,0.07c-5.04-9.5-7.85-20.19-11.54-30.4
		C281.22,281.85,280.87,279.58,280.33,277.38z"/>
	<path class="st0" d="M373.72,119.51c2.94,5.44,5.14,8.16,5.96,11.24c5.8,21.85,5.79,43.83,0.13,65.68
		c-0.83,3.21-3.88,5.86-5.9,8.76c-2.3-3.01-5.82-5.7-6.7-9.07c-5.61-21.54-5.47-43.26-0.03-64.84
		C368.02,127.92,370.6,124.99,373.72,119.51z"/>
	<path class="st0" d="M38.25,121.73c1.85,4,4.47,7.83,5.43,12.04c4.56,20.06,4.43,40.24,0.12,60.35c-0.58,2.7-1.77,5.33-3.05,7.8
		c-2.63,5.05-5.65,4.26-8.15-0.07c-1.38-2.4-2.53-5.08-3.09-7.77c-4.17-20.12-4.25-40.32,0.11-60.39c0.91-4.2,3.6-8.01,5.48-12.01
		C36.14,121.69,37.19,121.71,38.25,121.73z"/>
</g>
</svg>
