<?xml version="1.0" encoding="utf-8"?>
<!-- Generator: Adobe Illustrator 26.5.3, SVG Export Plug-In . SVG Version: 6.00 Build 0)  -->
<svg version="1.1" id="Camada_1" xmlns="http://www.w3.org/2000/svg" xmlns:xlink="http://www.w3.org/1999/xlink" x="0px" y="0px"
	 viewBox="0 0 422.81 450.38" style="enable-background:new 0 0 422.81 450.38;" xml:space="preserve">
<style type="text/css">
	.st0{fill:#FFFFFF;}
</style>
<g>
	<path class="st0" d="M212.34,407.13c-19.77,0-39.54,0.19-59.3-0.06c-15.21-0.19-30.44-0.68-45.35-4.25
		c-32.5-7.79-55.82-26.49-68.59-57.72c-5.5-13.45-7.85-27.58-8.56-41.99c-2.15-43.92-1.51-87.88-1.12-131.83
		c0.11-11.97,0.76-23.98,1.97-35.89c1.57-15.46,5.82-30.27,13.95-43.68c11.08-18.28,26.48-31.5,46.51-39.29
		c12.91-5.02,26.3-7.57,40.05-8.26c47.15-2.38,94.34-1.7,141.52-1.06c14.16,0.19,28.31,0.93,42.19,4.19
		c20.74,4.87,38.46,14.72,52.5,30.99c12.11,14.03,18.77,30.47,22.2,48.42c2.33,12.22,2.93,24.61,3.05,36.98
		c0.35,37.36,0.48,74.72,0.4,112.08c-0.03,11.98-0.49,24-1.61,35.92c-1.87,19.96-7.52,38.76-19.84,55.03
		c-11.97,15.8-27.41,26.73-46.25,32.95c-13.01,4.3-26.4,6.22-40,6.6c-24.57,0.69-49.14,1.11-73.71,1.64
		C212.35,407.64,212.35,407.39,212.34,407.13z M361.33,224.06c-0.09,0-0.18,0-0.27,0c0-9.49,0.08-18.98-0.02-28.46
		c-0.2-19.56,0.04-39.15-2.4-58.61c-1.29-10.27-4.15-20.15-9.55-29.07c-9.72-16.07-24.35-25.09-42.45-28.96
		c-12.25-2.61-24.73-2.84-37.16-3.08c-19.43-0.37-38.87-0.45-58.31-0.38c-27.4,0.09-54.82-0.27-82.18,1.89
		c-10.19,0.81-20.11,2.98-29.33,7.42c-18.04,8.69-28.8,23.29-33.54,42.54c-2.68,10.88-3.32,22-3.53,33.13
		c-0.83,44.47-1.05,88.94,0.45,133.4c0.29,8.65,1.32,17.34,2.76,25.88c1.69,10.02,5.46,19.37,11.66,27.59
		c9.93,13.15,23.37,20.51,39.28,23.84c11.29,2.36,22.75,2.97,34.2,2.99c41.84,0.06,83.67-0.08,125.51-0.37
		c9.67-0.07,19.35-0.69,28.88-2.64c10.31-2.1,20.06-5.56,28.53-11.97c12.21-9.24,19.64-21.6,23.22-36.38
		c2.72-11.22,3.34-22.66,3.54-34.12C360.97,267.14,361.1,245.6,361.33,224.06z"/>
	<path class="st0" d="M211.98,318.73c-50.43,0.12-91.91-39.28-93.99-89.49c-2.24-54.1,40.02-95.84,89.55-97.8
		c52.72-2.08,95.59,38.75,97.67,89.5C307.42,275.04,264.42,318.59,211.98,318.73z M150.77,225.03c0.15,33.7,27.32,60.79,60.95,60.76
		c33.45-0.03,60.65-27.31,60.68-60.84c0.03-33.35-27.48-60.72-60.85-60.67C177.6,164.34,150.9,191.94,150.77,225.03z"/>
	<path class="st0" d="M286.94,127.51c0.01-12.02,9.99-22.05,21.86-21.97c12.06,0.08,21.87,9.93,21.86,21.95
		c-0.01,12.18-9.78,21.88-22.05,21.9C296.75,149.4,286.93,139.49,286.94,127.51z"/>
</g>
</svg>
