<?xml version="1.0" encoding="utf-8"?>
<!-- Generator: Adobe Illustrator 26.5.3, SVG Export Plug-In . SVG Version: 6.00 Build 0)  -->
<svg version="1.1" id="Camada_1" xmlns="http://www.w3.org/2000/svg" xmlns:xlink="http://www.w3.org/1999/xlink" x="0px" y="0px"
	 viewBox="0 0 422.81 450.38" style="enable-background:new 0 0 422.81 450.38;" xml:space="preserve">
<style type="text/css">
	.st0{fill:#FFFFFF;}
</style>
<g>
	<path class="st0" d="M216.6,45.44c101.04,0.05,182.59,81.7,182.62,182.46c0.03,102.7-83.67,183.94-184.71,182.77
		C113.24,409.49,32.39,326.28,34,225.12C35.6,125.49,116.82,45.43,216.6,45.44z M335.84,220.99c0.06-0.17,0.12-0.34,0.18-0.5
		c0.8-0.05,1.61-0.04,2.39-0.17c7.84-1.27,13.52-6.92,14.83-14.73c1.18-7.06-2.58-14.43-9.33-17.95
		c-16.14-8.44-32.85-15.56-50.11-21.4c-38.21-12.94-77.49-19.36-117.84-19.28c-14.49,0.03-28.93,0.82-43.29,2.74
		c-9.44,1.26-18.87,2.77-28.18,4.74c-9.26,1.96-14.74,11.48-12.59,20.78c2.07,8.97,11.21,14.81,20.28,12.98
		c21.44-4.32,43.09-6.53,64.96-6.5c19.17,0.03,38.21,1.73,57.1,5.06c32.65,5.77,63.69,16.27,93.19,31.4
		C330.05,219.47,333.04,220.06,335.84,220.99z M176.92,209.62c-11.37,0.82-22.78,1.25-34.09,2.56c-10.18,1.19-20.3,3.05-30.34,5.17
		c-7.4,1.56-11.72,9.4-9.96,16.73c1.79,7.47,9.12,12.15,16.62,10.55c12.21-2.61,24.52-4.48,36.97-5.45
		c27.88-2.16,55.43-0.03,82.65,6.28c23.44,5.43,45.73,13.91,66.92,25.32c7.01,3.78,15.43,1.23,19.16-5.63
		c3.74-6.88,1.27-15.21-5.73-19.12c-2.73-1.53-5.52-2.97-8.32-4.36C268.65,220.65,223.98,210.35,176.92,209.62z M177.17,266.83
		c-2.6,0-5.2-0.05-7.8,0.01c-16.4,0.39-32.54,2.68-48.48,6.48c-6.44,1.54-10.05,7.26-8.53,13.4c1.44,5.83,7.37,9.19,13.6,7.69
		c17.99-4.32,36.21-6.3,54.72-5.99c22.64,0.38,44.69,4.12,66.18,11.21c13.52,4.46,26.47,10.23,38.85,17.26
		c3.73,2.12,7.5,2.31,11.21,0.1c7.47-4.43,7.04-14.71-0.78-19.1C259.2,277.14,219.49,266.93,177.17,266.83z"/>
</g>
</svg>
