<?xml version="1.0" encoding="utf-8"?>
<!-- Generator: Adobe Illustrator 26.5.3, SVG Export Plug-In . SVG Version: 6.00 Build 0)  -->
<svg version="1.1" id="Camada_1" xmlns="http://www.w3.org/2000/svg" xmlns:xlink="http://www.w3.org/1999/xlink" x="0px" y="0px"
	 viewBox="0 0 508.6 450.38" style="enable-background:new 0 0 508.6 450.38;" xml:space="preserve">
<style type="text/css">
	.st0{fill:#FFFFFF;}
</style>
<g>
	<path class="st0" d="M260.99,129.76c-54.9,0.22-98.67,43.55-99.53,97.35c-0.92,57.48,44.54,100.97,97.66,101.58
		c57.25,0.66,100.57-43.97,101.24-98.17C361.05,173.97,316.01,130.41,260.99,129.76z M226.2,282.49V176.18
		c30.64,17.74,60.67,35.12,91.9,53.2C287.04,247.33,257.15,264.6,226.2,282.49z"/>
	<path class="st0" d="M261.66,41.18c-103.9,0-188.13,84.23-188.13,188.13c0,103.91,84.23,188.14,188.13,188.14
		c103.91,0,188.14-84.23,188.14-188.14C449.8,125.41,365.57,41.18,261.66,41.18z M373.34,232.85
		c-1.42,58.79-50.43,109.5-112.37,108.89c-59.05,1.85-115.62-50.14-112.63-117.54c2.45-55.49,48.77-109.86,117.54-107.28
		C322.25,119.03,374.95,165.84,373.34,232.85z"/>
	<path class="st0" d="M260.99,129.76c-54.9,0.22-98.67,43.55-99.53,97.35c-0.92,57.48,44.54,100.97,97.66,101.58
		c57.25,0.66,100.57-43.97,101.24-98.17C361.05,173.97,316.01,130.41,260.99,129.76z M226.2,282.49V176.18
		c30.64,17.74,60.67,35.12,91.9,53.2C287.04,247.33,257.15,264.6,226.2,282.49z"/>
	<path class="st0" d="M260.99,129.76c-54.9,0.22-98.67,43.55-99.53,97.35c-0.92,57.48,44.54,100.97,97.66,101.58
		c57.25,0.66,100.57-43.97,101.24-98.17C361.05,173.97,316.01,130.41,260.99,129.76z M226.2,282.49V176.18
		c30.64,17.74,60.67,35.12,91.9,53.2C287.04,247.33,257.15,264.6,226.2,282.49z"/>
</g>
</svg>
