<?xml version="1.0" encoding="utf-8"?>
<!-- Generator: Adobe Illustrator 26.5.3, SVG Export Plug-In . SVG Version: 6.00 Build 0)  -->
<svg version="1.1" id="Camada_1" xmlns="http://www.w3.org/2000/svg" xmlns:xlink="http://www.w3.org/1999/xlink" x="0px" y="0px"
	 viewBox="0 0 422.81 450.38" style="enable-background:new 0 0 422.81 450.38;" xml:space="preserve">
<g>
	<path d="M210.35,57.78c29.69,0,59.39-0.6,89.06,0.13c55.18,1.35,83.92,28.35,85.4,83.59c1.6,59.97,1.51,120.05-0.14,180.03
		c-1.44,52.4-26.86,80.83-77.76,82.86c-65.04,2.59-130.35,2.25-195.39-0.53c-44.88-1.92-71.93-30.3-73.22-74.64
		c-1.9-65.12-1.96-130.38,0.08-195.49c1.42-45.33,29.81-72.47,75.21-75.04c32.16-1.82,64.5-0.35,96.76-0.35
		C210.35,58.16,210.35,57.97,210.35,57.78z M278.21,167.8c0,19.5,0,36.75,0,54c0.01,35.72,0.01,35.73-33.34,48.69
		c-1.2,0.47-2.52,0.65-3.66,1.21c-12.35,6.06-19.12,15.78-16.26,29.61c2.79,13.55,12.13,20.79,26.09,21.67
		c25.11,1.58,40.88-13.12,41.12-39.95c0.46-50.98-0.38-101.97,0.46-152.94c0.3-18.32-8.49-20.54-22.94-17.54
		c-30.92,6.41-61.79,13.08-92.8,18.99c-12.63,2.41-16.67,9.09-16.42,21.51c0.63,30.96,0.2,61.95,0.2,92.92
		c0,35.53,0,35.53-32.26,47.16c-1.82,0.66-3.82,0.9-5.52,1.77c-13.14,6.75-18.81,17.67-15.67,31.98
		c3.32,15.14,14.85,20.42,29.03,19.95c25.03-0.82,36.85-13.37,37.1-39.45c0.33-34.2-0.35-68.42,0.53-102.59
		c0.16-6.23,4.67-16.75,8.97-17.78C213.4,179.7,244.43,174.34,278.21,167.8z"/>
</g>
</svg>
