<?xml version="1.0" encoding="utf-8"?>
<!-- Generator: Adobe Illustrator 26.5.3, SVG Export Plug-In . SVG Version: 6.00 Build 0)  -->
<svg version="1.1" id="Camada_1" xmlns="http://www.w3.org/2000/svg" xmlns:xlink="http://www.w3.org/1999/xlink" x="0px" y="0px"
	 viewBox="0 0 508.6 450.38" style="enable-background:new 0 0 508.6 450.38;" xml:space="preserve">
<g>
	<path d="M73.53,258.23c0-19.27,0-38.54,0-57.81c0.56-0.38,1.53-0.7,1.61-1.16c7.98-46.42,29.41-84.78,66.1-114.99
		c44.06-36.29,94.09-48.16,149.8-40.22c51.09,7.29,91.69,33.05,121.85,73.62c32.9,44.26,44.1,95.86,32.41,149.2
		c-16.4,74.85-63.4,123.85-137.78,145.25c-6.52,1.88-13.24,3.06-19.87,4.57c-17.84,0-35.69,0-53.53,0
		c-0.39-0.55-0.73-1.53-1.19-1.59c-34.79-4.63-65.02-18.88-92.33-40.97c-31.76-25.69-50.7-59.06-62.63-97.18
		C76.06,270.84,74.99,264.47,73.53,258.23z M260.97,341.74c61.94,0.61,110.95-50.1,112.37-108.89
		c1.61-67.01-51.09-113.82-107.46-115.93c-68.77-2.58-115.09,51.79-117.54,107.28C145.35,291.6,201.92,343.59,260.97,341.74z"/>
	<path d="M260.99,129.76c55.02,0.65,100.06,44.21,99.37,100.76c-0.67,54.2-43.99,98.83-101.24,98.17
		c-53.12-0.61-98.58-44.1-97.66-101.58C162.32,173.31,206.09,129.98,260.99,129.76z M226.2,282.49
		c30.95-17.89,60.84-35.16,91.9-53.11c-31.23-18.08-61.26-35.46-91.9-53.2C226.2,212.34,226.2,246.75,226.2,282.49z"/>
</g>
</svg>
